<svg data-v-423bf9ae="" xmlns="http://www.w3.org/2000/svg" viewBox="0 0 478 111" class="iconLeftSlogan"><!----><!----><!----><g data-v-423bf9ae="" id="7fc56c41-9ae1-40ef-8f2a-77c22901bba5" fill="black" transform="matrix(4.559270569581267,0,0,4.559270569581267,103.76609939846199,-18.19148937769127)"><path d="M3.21 14.35L3.21 10.82L5.70 10.82C7.52 10.82 8.67 9.55 8.67 7.70C8.67 5.85 7.52 4.58 5.70 4.58L1.08 4.58L1.08 14.35ZM3.21 6.43L5.45 6.43C6.08 6.43 6.47 6.76 6.47 7.39L6.47 8.01C6.47 8.64 6.08 8.97 5.45 8.97L3.21 8.97ZM12.85 14.52C15.01 14.52 16.30 13.03 16.30 10.67C16.30 8.30 15.01 6.83 12.85 6.83C10.70 6.83 9.41 8.30 9.41 10.67C9.41 13.03 10.70 14.52 12.85 14.52ZM12.85 12.88C12.04 12.88 11.56 12.35 11.56 11.42L11.56 9.93C11.56 9.00 12.04 8.47 12.85 8.47C13.66 8.47 14.14 9.00 14.14 9.93L14.14 11.42C14.14 12.35 13.66 12.88 12.85 12.88ZM17.77 17.15L19.84 17.15L19.84 13.12L19.91 13.12C20.12 13.92 20.93 14.52 21.88 14.52C23.74 14.52 24.71 13.16 24.71 10.67C24.71 8.18 23.74 6.83 21.88 6.83C20.93 6.83 20.12 7.42 19.91 8.23L19.84 8.23L19.84 7.00L17.77 7.00ZM21.20 12.84C20.41 12.84 19.84 12.43 19.84 11.76L19.84 9.59C19.84 8.92 20.41 8.51 21.20 8.51C21.98 8.51 22.55 9.11 22.55 10.04L22.55 11.31C22.55 12.24 21.98 12.84 21.20 12.84ZM30.62 14.35L32.69 14.35L32.69 7.00L30.62 7.00L30.62 11.77C30.62 12.47 29.96 12.84 29.32 12.84C28.56 12.84 28.27 12.33 28.27 11.44L28.27 7.00L26.19 7.00L26.19 11.62C26.19 13.47 26.99 14.52 28.49 14.52C29.69 14.52 30.30 13.86 30.55 13.12L30.62 13.12ZM34.62 17.15L36.69 17.15L36.69 13.12L36.76 13.12C36.97 13.92 37.79 14.52 38.74 14.52C40.60 14.52 41.57 13.16 41.57 10.67C41.57 8.18 40.60 6.83 38.74 6.83C37.79 6.83 36.97 7.42 36.76 8.23L36.69 8.23L36.69 7.00L34.62 7.00ZM38.05 12.84C37.27 12.84 36.69 12.43 36.69 11.76L36.69 9.59C36.69 8.92 37.27 8.51 38.05 8.51C38.84 8.51 39.41 9.11 39.41 10.04L39.41 11.31C39.41 12.24 38.84 12.84 38.05 12.84ZM45.37 10.77L46.90 10.77L48.61 14.35L50.97 14.35L49.06 10.51C50.25 10.07 50.83 9.02 50.83 7.70C50.83 5.84 49.69 4.58 47.88 4.58L43.25 4.58L43.25 14.35L45.37 14.35ZM45.37 8.97L45.37 6.43L47.61 6.43C48.24 6.43 48.64 6.76 48.64 7.39L48.64 8.01C48.64 8.64 48.24 8.97 47.61 8.97ZM55.43 14.52C56.77 14.52 57.85 14.06 58.51 13.30L57.47 12.01C57.01 12.49 56.53 12.89 55.66 12.89C54.56 12.89 54.04 12.28 54.04 11.31L54.04 11.20L58.76 11.20L58.76 10.58C58.76 8.60 57.78 6.83 55.34 6.83C53.13 6.83 51.90 8.34 51.90 10.67C51.90 13.02 53.17 14.52 55.43 14.52ZM55.38 8.36C56.21 8.36 56.62 8.96 56.62 9.86L56.62 9.98L54.04 9.98L54.04 9.87C54.04 8.96 54.56 8.36 55.38 8.36ZM66.81 14.35L66.81 12.74L66.12 12.74L66.12 9.52C66.12 7.78 65.06 6.83 62.99 6.83C61.45 6.83 60.61 7.36 60.02 8.23L61.25 9.32C61.57 8.88 62.01 8.46 62.83 8.46C63.70 8.46 64.05 8.90 64.05 9.62L64.05 10.08L62.89 10.08C60.94 10.08 59.74 10.82 59.74 12.38C59.74 13.65 60.55 14.52 62.02 14.52C63.14 14.52 63.95 14.01 64.18 13.06L64.26 13.06C64.39 13.85 64.92 14.35 65.66 14.35ZM62.79 13.08C62.17 13.08 61.82 12.82 61.82 12.29L61.82 12.08C61.82 11.55 62.24 11.26 63.04 11.26L64.05 11.26L64.05 12.12C64.05 12.80 63.48 13.08 62.79 13.08ZM71.16 14.52C72.60 14.52 73.65 13.89 74.14 12.49L72.53 11.79C72.32 12.38 71.99 12.89 71.16 12.89C70.32 12.89 69.89 12.29 69.89 11.37L69.89 10.00C69.89 9.07 70.32 8.47 71.16 8.47C71.89 8.47 72.30 8.92 72.42 9.48L74.10 8.75C73.67 7.55 72.65 6.83 71.16 6.83C68.95 6.83 67.73 8.32 67.73 10.67C67.73 13.02 68.95 14.52 71.16 14.52ZM75.43 14.35L77.50 14.35L77.50 9.59C77.50 8.86 78.16 8.51 78.83 8.51C79.59 8.51 79.86 8.97 79.86 9.91L79.86 14.35L81.93 14.35L81.93 9.74C81.93 7.90 81.13 6.83 79.63 6.83C78.47 6.83 77.85 7.48 77.59 8.25L77.50 8.25L77.50 3.99L75.43 3.99Z"></path></g><!----><g data-v-423bf9ae="" id="674b761b-6d9f-4b54-a7fc-718aedb05930" transform="matrix(1.1097777472601997,0,0,1.1097777472601997,-10.4428314848955,0.5645274956787532)" stroke="none" fill="black"><path d="M71.39 7.278V.12l18.527 18.528L71.31 37.254v-7.442s-10.914-.756-18.739 4.091c-5.199 3.22-8.303 6.439-10.873 10.794 0 0 .702-11.561 7.351-22.09C57.365 9.441 71.39 7.278 71.39 7.278z"></path><path d="M73.982 40.083L67 46.911V33.843c-2 .152-5.766.603-9.016 1.804.912 2.102 1.487 4.418 1.487 6.858 0 9.494-7.671 17.19-17.165 17.19-9.493 0-17.177-7.696-17.177-17.19 0-9.493 7.702-17.189 17.195-17.189.217 0 .435.017.649.027a48.425 48.425 0 012.689-4.871 37.446 37.446 0 014.861-6.143 32.226 32.226 0 00-8.194-1.073C24.475 13.254 10 27.729 10 45.585 10 63.44 42.332 100 42.332 100s32.33-36.56 32.33-54.415c0-1.899-.23-3.757-.538-5.565l-.142.063z"></path></g><!----><g data-v-423bf9ae="" id="7d31bd58-de32-40d0-91bf-53015c122158" fill="black" transform="matrix(0.38043424574218554,0,0,0.38043424574218554,108.55695160200372,58.95761051543234)"><path d="M0.35 10.04L0.35 10.04L0.84 9.98L1.03 10.85Q1.13 11.33 1.20 11.41Q1.27 11.49 1.68 11.64L1.68 11.64Q2.52 11.95 3.42 11.95L3.42 11.95Q4.20 11.95 4.74 11.49L4.74 11.49Q5.28 11.04 5.28 10.26L5.28 10.26Q5.28 9.65 4.82 9.21L4.82 9.21Q4.34 8.76 3.49 8.30L3.49 8.30L2.91 7.98Q2.17 7.55 1.93 7.36L1.93 7.36Q1.57 7.08 1.26 6.59Q0.95 6.10 0.95 5.46L0.95 5.46Q0.95 4.39 1.79 3.68Q2.63 2.97 3.74 2.97L3.74 2.97Q4.02 2.97 4.37 3.04L4.37 3.04Q4.57 3.08 4.90 3.17L4.90 3.17L5.14 3.25Q5.24 3.25 5.28 3.16L5.28 3.16Q5.33 3.05 5.33 2.98L5.33 2.98L5.35 2.88L5.82 2.85L6.04 5.41L5.53 5.43L5.41 4.18Q4.66 3.62 3.50 3.62L3.50 3.62Q2.86 3.62 2.35 4.05L2.35 4.05Q1.87 4.47 1.87 5.12L1.87 5.12Q1.87 5.72 2.32 6.17L2.32 6.17Q2.75 6.60 3.62 7.08L3.62 7.08L4.40 7.50Q5.35 8.03 5.88 8.59Q6.41 9.15 6.41 9.92L6.41 9.92Q6.41 10.99 5.56 11.76L5.56 11.76Q4.69 12.54 3.23 12.54L3.23 12.54Q2.67 12.54 2.17 12.41Q1.67 12.29 1.61 12.29L1.61 12.29Q1.36 12.29 1.36 12.58L1.36 12.58L1.37 12.76L0.90 12.80Q0.83 12.41 0.35 10.04ZM14.96 3.64L14.59 3.64L14.59 3.08L18.08 3.08L18.08 3.64L17.72 3.64Q17.21 3.64 17.06 3.75L17.06 3.75Q16.93 3.84 16.92 4.25L16.92 4.25L16.92 6.91L21.47 6.91L21.47 4.14Q21.47 3.77 21.38 3.71L21.38 3.71Q21.27 3.64 20.74 3.64L20.74 3.64L20.15 3.64L20.14 3.08L23.69 3.08L23.69 3.64L23.30 3.64Q22.83 3.64 22.72 3.74Q22.61 3.83 22.61 4.22L22.61 4.22L22.61 11.29Q22.61 11.67 22.74 11.77L22.74 11.77Q22.90 11.87 23.45 11.87L23.45 11.87L23.92 11.87L23.91 12.41L20.42 12.41L20.41 11.87L20.82 11.87Q21.28 11.87 21.38 11.77Q21.47 11.67 21.47 11.25L21.47 11.25L21.47 7.58L16.92 7.58L16.92 11.25Q16.92 11.67 17.07 11.77Q17.23 11.87 17.93 11.87L17.93 11.87L18.33 11.87L18.31 12.41L14.72 12.41L14.71 11.87L15.07 11.87Q15.62 11.87 15.69 11.80L15.69 11.80Q15.78 11.70 15.78 11.25L15.78 11.25L15.78 4.09Q15.78 3.76 15.65 3.71L15.65 3.71Q15.48 3.64 14.96 3.64L14.96 3.64ZM32.04 7.83L32.04 7.83Q32.04 6.62 32.44 5.68L32.44 5.68Q32.86 4.72 33.55 4.12L33.55 4.12Q34.24 3.51 35.10 3.19L35.10 3.19Q35.94 2.88 36.89 2.88L36.89 2.88Q38.15 2.88 39.20 3.40L39.20 3.40Q40.28 3.93 41.00 5.07L41.00 5.07Q41.69 6.17 41.70 7.75L41.70 7.75Q41.70 8.70 41.39 9.54Q41.08 10.38 40.48 11.10Q39.87 11.81 38.94 12.22L38.94 12.22Q37.97 12.63 36.78 12.64L36.78 12.64Q35.65 12.64 34.71 12.23Q33.78 11.83 33.22 11.14L33.22 11.14Q32.64 10.45 32.35 9.60L32.35 9.60Q32.04 8.72 32.04 7.83ZM33.30 7.38L33.30 7.38Q33.30 8.52 33.73 9.60L33.73 9.60Q34.13 10.64 35.06 11.33L35.06 11.33Q35.97 12.03 37.16 12.04L37.16 12.04Q38.53 12.04 39.47 11.01L39.47 11.01Q40.42 9.97 40.42 8.10L40.42 8.10Q40.42 5.99 39.26 4.72L39.26 4.72Q38.11 3.46 36.60 3.45L36.60 3.45Q36.08 3.45 35.54 3.65Q34.99 3.85 34.49 4.25L34.49 4.25Q33.94 4.68 33.62 5.48L33.62 5.48Q33.30 6.27 33.30 7.38ZM53.54 12.41L49.81 12.41L49.81 11.87L50.25 11.87Q50.63 11.87 50.68 11.81L50.68 11.81Q50.75 11.74 50.76 11.46L50.76 11.46L50.76 4.14Q50.76 3.81 50.67 3.72Q50.59 3.64 50.22 3.64L50.22 3.64L49.85 3.64L49.87 3.08L52.75 3.08Q53.90 3.08 54.55 3.19L54.55 3.19Q55.15 3.28 55.62 3.68L55.62 3.68Q56.81 4.64 56.81 6.19L56.81 6.19Q56.81 7.23 56.05 7.98L56.05 7.98Q55.27 8.74 53.86 8.73L53.86 8.73Q53.69 8.73 53.27 8.70L53.27 8.70Q53.16 8.69 52.74 8.62L52.74 8.62Q52.40 8.55 52.31 8.54L52.31 8.54Q52.01 8.47 52.00 8.46L52.00 8.46L51.88 8.44L51.88 11.46Q51.88 11.74 52.01 11.81L52.01 11.81Q52.12 11.87 52.84 11.87L52.84 11.87L53.54 11.87L53.54 12.41ZM51.88 4.28L51.88 8.02Q52.23 8.29 53.20 8.29L53.20 8.29Q54.34 8.29 54.91 7.75L54.91 7.75Q55.50 7.21 55.50 6.16L55.50 6.16Q55.50 4.98 54.59 4.31L54.59 4.31Q53.70 3.64 52.31 3.64L52.31 3.64Q52.06 3.64 51.97 3.75L51.97 3.75Q51.89 3.84 51.88 4.28L51.88 4.28ZM74.85 3.64L74.36 3.64L74.38 3.08L77.96 3.08L77.96 3.64L77.33 3.64Q76.95 3.64 76.84 3.72Q76.73 3.80 76.73 4.16L76.73 4.16L76.73 11.22Q76.73 11.57 76.81 11.67Q76.90 11.77 77.19 11.77L77.19 11.77Q80.06 11.74 80.72 11.63L80.72 11.63Q80.93 11.61 81.01 11.39Q81.09 11.17 81.29 10.05L81.29 10.05L81.79 10.08L81.32 12.41L74.56 12.41L74.55 11.87L74.94 11.87Q75.44 11.87 75.51 11.80L75.51 11.80Q75.59 11.72 75.60 11.33L75.60 11.33L75.60 4.09Q75.60 3.80 75.44 3.72L75.44 3.72Q75.29 3.64 74.85 3.64L74.85 3.64ZM89.90 7.83L89.90 7.83Q89.90 6.62 90.30 5.68L90.30 5.68Q90.72 4.72 91.41 4.12L91.41 4.12Q92.10 3.51 92.96 3.19L92.96 3.19Q93.80 2.88 94.75 2.88L94.75 2.88Q96.01 2.88 97.06 3.40L97.06 3.40Q98.14 3.93 98.85 5.07L98.85 5.07Q99.55 6.17 99.56 7.75L99.56 7.75Q99.56 8.70 99.25 9.54Q98.94 10.38 98.34 11.10Q97.73 11.81 96.80 12.22L96.80 12.22Q95.83 12.63 94.64 12.64L94.64 12.64Q93.51 12.64 92.57 12.23Q91.64 11.83 91.08 11.14L91.08 11.14Q90.50 10.45 90.21 9.60L90.21 9.60Q89.90 8.72 89.90 7.83ZM91.16 7.38L91.16 7.38Q91.16 8.52 91.59 9.60L91.59 9.60Q91.99 10.64 92.92 11.33L92.92 11.33Q93.83 12.03 95.02 12.04L95.02 12.04Q96.39 12.04 97.33 11.01L97.33 11.01Q98.28 9.97 98.28 8.10L98.28 8.10Q98.28 5.99 97.12 4.72L97.12 4.72Q95.97 3.46 94.46 3.45L94.46 3.45Q93.94 3.45 93.40 3.65Q92.85 3.85 92.35 4.25L92.35 4.25Q91.80 4.68 91.48 5.48L91.48 5.48Q91.16 6.27 91.16 7.38ZM108.06 8.02L108.06 8.02Q108.06 6.86 108.53 5.83L108.53 5.83Q108.99 4.85 109.74 4.27L109.74 4.27Q110.49 3.69 111.38 3.37Q112.28 3.05 113.12 3.05L113.12 3.05Q113.99 3.05 114.66 3.16L114.66 3.16Q115.29 3.26 115.58 3.37L115.58 3.37Q115.89 3.48 115.92 3.48L115.92 3.48Q116.09 3.48 116.12 3.41L116.12 3.41Q116.14 3.33 116.14 3.09L116.14 3.09L116.14 2.97L116.68 2.97Q116.72 4.30 116.85 5.64L116.85 5.64L116.34 5.65Q116.31 5.40 116.30 5.26L116.30 5.26Q116.30 5.20 116.29 5.13Q116.29 5.07 116.28 5.02Q116.27 4.98 116.27 4.95L116.27 4.95Q116.25 4.84 116.25 4.74L116.25 4.74Q116.25 4.68 116.20 4.59L116.20 4.59Q116.20 4.57 116.17 4.55Q116.14 4.52 116.14 4.50L116.14 4.50Q116.12 4.44 116.05 4.41L116.05 4.41Q116.01 4.38 115.98 4.37Q115.95 4.36 115.92 4.35L115.92 4.35Q115.91 4.35 115.89 4.33Q115.86 4.31 115.82 4.29Q115.78 4.27 115.74 4.25L115.74 4.25Q115.51 4.16 115.49 4.14L115.49 4.14Q115.14 3.96 114.50 3.83L114.50 3.83Q113.83 3.71 113.16 3.71L113.16 3.71Q111.44 3.71 110.35 4.84L110.35 4.84Q109.24 5.99 109.25 7.62L109.25 7.62Q109.25 9.35 110.46 10.69L110.46 10.69Q111.67 12.02 113.48 12.02L113.48 12.02Q114.49 12.02 115.43 11.49L115.43 11.49Q116.38 10.94 116.41 10.58L116.41 10.58L116.45 9.41L116.94 9.41L116.86 11.45Q116.79 11.49 116.66 11.57L116.66 11.57Q116.61 11.60 116.14 11.85L116.14 11.85Q115.77 12.05 115.32 12.23L115.32 12.23Q114.96 12.39 114.31 12.51L114.31 12.51Q113.70 12.63 113.13 12.64L113.13 12.64Q110.76 12.64 109.40 11.39L109.40 11.39Q108.06 10.14 108.06 8.02ZM124.99 12.41L124.97 11.87L125.15 11.87Q125.54 11.87 125.67 11.73L125.67 11.73Q125.79 11.57 126.12 10.83L126.12 10.83L127.03 8.82L127.61 7.53Q127.87 6.97 127.91 6.86L127.91 6.86Q127.98 6.70 128.03 6.60Q128.08 6.51 128.10 6.45L128.10 6.45L128.19 6.21L129.62 2.74L129.92 2.74Q130.77 4.98 132.96 10.25L132.96 10.25Q133.41 11.34 133.60 11.64L133.60 11.64Q133.74 11.87 134.18 11.87L134.18 11.87L134.39 11.87L134.37 12.41L131.18 12.41L131.20 11.87L131.61 11.87Q132.23 11.87 132.23 11.70L132.23 11.70Q132.23 11.63 132.09 11.27L132.09 11.27L131.05 8.72L127.80 8.72L126.70 11.18Q126.56 11.50 126.56 11.63L126.56 11.63Q126.56 11.79 126.66 11.83Q126.75 11.87 127.13 11.87L127.13 11.87L127.71 11.87L127.71 12.41L124.99 12.41ZM129.49 4.79L128.07 8.10L130.81 8.10L129.49 4.79ZM142.61 3.64L142.12 3.64L142.13 3.08L145.72 3.08L145.72 3.64L145.09 3.64Q144.71 3.64 144.60 3.72Q144.48 3.80 144.48 4.16L144.48 4.16L144.48 11.22Q144.48 11.57 144.57 11.67Q144.66 11.77 144.95 11.77L144.95 11.77Q147.82 11.74 148.48 11.63L148.48 11.63Q148.69 11.61 148.77 11.39Q148.85 11.17 149.05 10.05L149.05 10.05L149.54 10.08L149.08 12.41L142.32 12.41L142.30 11.87L142.69 11.87Q143.20 11.87 143.27 11.80L143.27 11.80Q143.35 11.72 143.36 11.33L143.36 11.33L143.36 4.09Q143.36 3.80 143.20 3.72L143.20 3.72Q143.05 3.64 142.61 3.64L142.61 3.64ZM157.39 14.26L157.39 14.26Q157.39 14.18 157.54 14.07L157.54 14.07Q157.57 14.04 157.88 13.86L157.88 13.86Q158.07 13.73 158.22 13.48L158.22 13.48Q158.38 13.21 158.37 12.87L158.37 12.87Q158.37 12.65 158.27 12.48L158.27 12.48Q158.19 12.33 158.06 12.28L158.06 12.28Q157.98 12.24 157.86 12.15L157.86 12.15Q157.77 12.08 157.77 12.00L157.77 12.00Q157.77 11.84 158.05 11.59Q158.33 11.33 158.41 11.33L158.41 11.33Q158.44 11.33 158.63 11.39L158.63 11.39Q158.76 11.43 158.98 11.72L158.98 11.72Q159.20 12.00 159.20 12.44L159.20 12.44Q159.20 12.86 159.01 13.31Q158.83 13.76 158.57 14.03L158.57 14.03Q158.14 14.46 157.57 14.46L157.57 14.46Q157.39 14.46 157.39 14.26ZM177.24 5.35L176.74 5.33Q176.87 4.17 176.95 3.08L176.95 3.08L185.03 3.08Q184.95 4.13 184.92 4.53L184.92 4.53Q184.88 5.26 184.86 5.32L184.86 5.32L184.36 5.30Q184.44 4.34 184.44 4.16L184.44 4.16Q184.44 3.88 184.30 3.79L184.30 3.79Q184.13 3.69 183.72 3.69L183.72 3.69L182.12 3.69Q181.61 3.69 181.49 3.79L181.49 3.79Q181.39 3.87 181.38 4.36L181.38 4.36L181.38 11.22Q181.38 11.66 181.53 11.76L181.53 11.76Q181.69 11.87 182.20 11.87L182.20 11.87L182.76 11.87L182.77 12.41L179.08 12.40L179.08 11.87L179.30 11.87Q179.97 11.87 180.11 11.79Q180.26 11.70 180.26 11.28L180.26 11.28L180.26 4.48Q180.26 3.92 180.16 3.80Q180.06 3.69 179.63 3.69L179.63 3.69L178.17 3.69Q177.98 3.69 177.91 3.71Q177.84 3.72 177.73 3.72L177.73 3.72Q177.71 3.72 177.59 3.79L177.59 3.79Q177.51 3.84 177.48 3.86Q177.45 3.88 177.41 3.99L177.41 3.99Q177.39 4.05 177.36 4.14L177.36 4.14Q177.33 4.21 177.31 4.36L177.31 4.36Q177.28 4.59 177.28 4.61L177.28 4.61Q177.28 4.80 177.27 4.95L177.27 4.95Q177.27 5.02 177.26 5.15Q177.26 5.29 177.24 5.35L177.24 5.35ZM193.14 3.64L192.77 3.64L192.77 3.08L196.25 3.08L196.25 3.64L195.89 3.64Q195.38 3.64 195.23 3.75L195.23 3.75Q195.10 3.84 195.09 4.25L195.09 4.25L195.09 6.91L199.64 6.91L199.64 4.14Q199.64 3.77 199.55 3.71L199.55 3.71Q199.44 3.64 198.91 3.64L198.91 3.64L198.32 3.64L198.31 3.08L201.87 3.08L201.87 3.64L201.48 3.64Q201.00 3.64 200.89 3.74Q200.78 3.83 200.78 4.22L200.78 4.22L200.78 11.29Q200.78 11.67 200.92 11.77L200.92 11.77Q201.07 11.87 201.62 11.87L201.62 11.87L202.09 11.87L202.08 12.41L198.59 12.41L198.58 11.87L198.99 11.87Q199.45 11.87 199.55 11.77Q199.64 11.67 199.64 11.25L199.64 11.25L199.64 7.58L195.09 7.58L195.09 11.25Q195.09 11.67 195.24 11.77Q195.40 11.87 196.10 11.87L196.10 11.87L196.51 11.87L196.48 12.41L192.90 12.41L192.88 11.87L193.25 11.87Q193.79 11.87 193.86 11.80L193.86 11.80Q193.96 11.70 193.96 11.25L193.96 11.25L193.96 4.09Q193.96 3.76 193.82 3.71L193.82 3.71Q193.65 3.64 193.14 3.64L193.14 3.64ZM210.16 3.64L209.77 3.64L209.79 3.08L213.01 3.08Q214.14 3.08 214.74 3.21L214.74 3.21Q215.39 3.37 215.85 3.75L215.85 3.75Q216.86 4.57 216.86 5.71L216.86 5.71Q216.86 6.43 216.38 7.04L216.38 7.04Q215.89 7.66 214.86 7.92L214.86 7.92L217.55 11.49Q217.85 11.87 218.15 11.87L218.15 11.87L218.75 11.87L218.78 12.41L216.75 12.41L213.75 8.10L213.58 8.10Q213.54 8.10 213.49 8.11Q213.43 8.11 213.42 8.11L213.42 8.11Q212.54 8.11 212.14 8.03L212.14 8.03L212.14 11.46Q212.14 11.76 212.28 11.81L212.28 11.81Q212.41 11.87 213.11 11.87L213.11 11.87L213.82 11.87L213.79 12.41L210.07 12.41L210.07 11.87L210.39 11.87Q210.85 11.87 210.92 11.81L210.92 11.81Q211.00 11.74 211.00 11.46L211.00 11.46L211.00 4.14Q211.00 3.82 210.81 3.73L210.81 3.73Q210.59 3.64 210.16 3.64L210.16 3.64ZM212.14 4.28L212.14 7.57Q212.32 7.70 213.04 7.71L213.04 7.71Q214.31 7.71 214.89 7.27L214.89 7.27Q215.48 6.84 215.48 5.92L215.48 5.92Q215.48 4.92 214.70 4.27L214.70 4.27Q213.94 3.64 212.56 3.64L212.56 3.64Q212.31 3.64 212.23 3.75L212.23 3.75Q212.15 3.84 212.14 4.28L212.14 4.28ZM227.12 3.64L226.53 3.64L226.54 3.08L230.06 3.08L230.06 3.64L229.82 3.64Q229.28 3.64 229.11 3.73L229.11 3.73Q228.97 3.81 228.97 4.28L228.97 4.28L228.97 11.22Q228.97 11.68 229.08 11.77Q229.19 11.87 229.72 11.87L229.72 11.87L230.27 11.87L230.28 12.41L226.70 12.41L226.69 11.87L227.05 11.87Q227.61 11.87 227.72 11.77Q227.83 11.67 227.83 11.25L227.83 11.25L227.83 4.14Q227.83 3.77 227.73 3.71L227.73 3.71Q227.62 3.64 227.12 3.64L227.12 3.64ZM238.51 3.64L238.02 3.64L238.02 3.08L241.53 3.08L241.52 3.64L240.78 3.64Q240.45 3.64 240.45 3.82L240.45 3.82Q240.45 3.98 240.64 4.48L240.64 4.48L243.24 10.94L246.18 4.18Q246.25 3.97 246.26 3.92L246.26 3.92Q246.26 3.79 246.16 3.74Q246.06 3.68 245.92 3.65L245.92 3.65Q245.83 3.64 245.57 3.64L245.57 3.64L245.12 3.64L245.10 3.08L247.93 3.08L247.91 3.64L247.50 3.64Q247.18 3.64 247.02 3.83L247.02 3.83Q246.94 3.93 246.48 4.94L246.48 4.94Q246.26 5.46 246.20 5.57L246.20 5.57L243.07 12.63L242.83 12.63L239.58 4.73Q239.26 3.93 239.11 3.79L239.11 3.79Q238.96 3.63 238.51 3.64L238.51 3.64ZM255.68 3.64L255.67 3.08L262.88 3.08Q262.90 4.14 262.95 5.28L262.95 5.28L262.40 5.30Q262.39 4.66 262.34 4.25L262.34 4.25Q262.29 3.89 262.24 3.80L262.24 3.80Q262.19 3.71 262.07 3.69L262.07 3.69Q261.97 3.68 261.39 3.68L261.39 3.68L259.01 3.68Q258.46 3.68 258.32 3.77L258.32 3.77Q258.19 3.86 258.19 4.33L258.19 4.33L258.19 6.28Q258.19 6.69 258.25 6.76L258.25 6.76Q258.32 6.84 258.66 6.84L258.66 6.84L260.77 6.84Q261.13 6.84 261.21 6.73L261.21 6.73Q261.30 6.63 261.30 6.14L261.30 6.14L261.30 5.61L261.82 5.63L261.82 8.97L261.30 8.97L261.30 8.24Q261.30 7.66 261.23 7.57L261.23 7.57Q261.15 7.46 260.80 7.46L260.80 7.46L258.70 7.46Q258.36 7.46 258.28 7.54Q258.19 7.63 258.19 7.89L258.19 7.89L258.19 11.20Q258.19 11.57 258.28 11.67Q258.36 11.77 258.64 11.77L258.64 11.77Q261.56 11.75 262.08 11.69L262.08 11.69Q262.60 11.63 262.68 11.38L262.68 11.38L262.69 11.36L262.70 11.35L262.92 10.17L263.40 10.25L263.05 12.41L255.95 12.41L255.95 11.87L256.32 11.87Q256.88 11.87 256.96 11.80L256.96 11.80Q257.06 11.72 257.06 11.33L257.06 11.33L257.06 4.24Q257.06 3.82 256.91 3.73L256.91 3.73Q256.74 3.64 256.08 3.64L256.08 3.64L255.68 3.64ZM281.34 3.64L280.85 3.64L280.86 3.08L284.45 3.08L284.45 3.64L283.81 3.64Q283.44 3.64 283.33 3.72Q283.21 3.80 283.21 4.16L283.21 4.16L283.21 11.22Q283.21 11.57 283.30 11.67Q283.38 11.77 283.68 11.77L283.68 11.77Q286.55 11.74 287.21 11.63L287.21 11.63Q287.42 11.61 287.50 11.39Q287.58 11.17 287.78 10.05L287.78 10.05L288.27 10.08L287.81 12.41L281.05 12.41L281.03 11.87L281.42 11.87Q281.93 11.87 282.00 11.80L282.00 11.80Q282.08 11.72 282.08 11.33L282.08 11.33L282.08 4.09Q282.08 3.80 281.93 3.72L281.93 3.72Q281.78 3.64 281.34 3.64L281.34 3.64ZM296.39 7.83L296.39 7.83Q296.39 6.62 296.79 5.68L296.79 5.68Q297.21 4.72 297.90 4.12L297.90 4.12Q298.59 3.51 299.45 3.19L299.45 3.19Q300.29 2.88 301.24 2.88L301.24 2.88Q302.50 2.88 303.55 3.40L303.55 3.40Q304.63 3.93 305.34 5.07L305.34 5.07Q306.04 6.17 306.04 7.75L306.04 7.75Q306.04 8.70 305.74 9.54Q305.43 10.38 304.82 11.10Q304.22 11.81 303.28 12.22L303.28 12.22Q302.32 12.63 301.13 12.64L301.13 12.64Q300.00 12.64 299.06 12.23Q298.12 11.83 297.56 11.14L297.56 11.14Q296.99 10.45 296.69 9.60L296.69 9.60Q296.39 8.72 296.39 7.83ZM297.64 7.38L297.64 7.38Q297.64 8.52 298.07 9.60L298.07 9.60Q298.48 10.64 299.41 11.33L299.41 11.33Q300.32 12.03 301.51 12.04L301.51 12.04Q302.88 12.04 303.82 11.01L303.82 11.01Q304.77 9.97 304.77 8.10L304.77 8.10Q304.77 5.99 303.60 4.72L303.60 4.72Q302.46 3.46 300.95 3.45L300.95 3.45Q300.43 3.45 299.88 3.65Q299.34 3.85 298.83 4.25L298.83 4.25Q298.29 4.68 297.96 5.48L297.96 5.48Q297.64 6.27 297.64 7.38ZM314.54 8.02L314.54 8.02Q314.54 6.86 315.01 5.83L315.01 5.83Q315.48 4.85 316.23 4.27L316.23 4.27Q316.98 3.69 317.87 3.37Q318.77 3.05 319.61 3.05L319.61 3.05Q320.48 3.05 321.15 3.16L321.15 3.16Q321.77 3.26 322.07 3.37L322.07 3.37Q322.38 3.48 322.41 3.48L322.41 3.48Q322.58 3.48 322.60 3.41L322.60 3.41Q322.63 3.33 322.63 3.09L322.63 3.09L322.63 2.97L323.16 2.97Q323.20 4.30 323.33 5.64L323.33 5.64L322.83 5.65Q322.80 5.40 322.79 5.26L322.79 5.26Q322.79 5.20 322.78 5.13Q322.77 5.07 322.77 5.02Q322.76 4.98 322.76 4.95L322.76 4.95Q322.73 4.84 322.73 4.74L322.73 4.74Q322.73 4.68 322.69 4.59L322.69 4.59Q322.69 4.57 322.66 4.55Q322.63 4.52 322.63 4.50L322.63 4.50Q322.60 4.44 322.53 4.41L322.53 4.41Q322.49 4.38 322.46 4.37Q322.44 4.36 322.41 4.35L322.41 4.35Q322.40 4.35 322.37 4.33Q322.35 4.31 322.31 4.29Q322.27 4.27 322.23 4.25L322.23 4.25Q322 4.16 321.97 4.14L321.97 4.14Q321.62 3.96 320.98 3.83L320.98 3.83Q320.31 3.71 319.65 3.71L319.65 3.71Q317.93 3.71 316.83 4.84L316.83 4.84Q315.72 5.99 315.73 7.62L315.73 7.62Q315.73 9.35 316.95 10.69L316.95 10.69Q318.15 12.02 319.97 12.02L319.97 12.02Q320.97 12.02 321.92 11.49L321.92 11.49Q322.87 10.94 322.90 10.58L322.90 10.58L322.94 9.41L323.43 9.41L323.35 11.45Q323.28 11.49 323.15 11.57L323.15 11.57Q323.09 11.60 322.63 11.85L322.63 11.85Q322.25 12.05 321.81 12.23L321.81 12.23Q321.45 12.39 320.80 12.51L320.80 12.51Q320.19 12.63 319.62 12.64L319.62 12.64Q317.24 12.64 315.88 11.39L315.88 11.39Q314.54 10.14 314.54 8.02ZM331.47 12.41L331.46 11.87L331.63 11.87Q332.02 11.87 332.15 11.73L332.15 11.73Q332.27 11.57 332.61 10.83L332.61 10.83L333.52 8.82L334.09 7.53Q334.36 6.97 334.40 6.86L334.40 6.86Q334.47 6.70 334.52 6.60Q334.57 6.51 334.58 6.45L334.58 6.45L334.68 6.21L336.11 2.74L336.40 2.74Q337.26 4.98 339.45 10.25L339.45 10.25Q339.90 11.34 340.09 11.64L340.09 11.64Q340.22 11.87 340.66 11.87L340.66 11.87L340.87 11.87L340.86 12.41L337.67 12.41L337.68 11.87L338.10 11.87Q338.71 11.87 338.71 11.70L338.71 11.70Q338.71 11.63 338.58 11.27L338.58 11.27L337.54 8.72L334.29 8.72L333.18 11.18Q333.05 11.50 333.05 11.63L333.05 11.63Q333.05 11.79 333.14 11.83Q333.24 11.87 333.62 11.87L333.62 11.87L334.20 11.87L334.20 12.41L331.47 12.41ZM335.97 4.79L334.56 8.10L337.30 8.10L335.97 4.79ZM349.10 3.64L348.61 3.64L348.62 3.08L352.21 3.08L352.21 3.64L351.57 3.64Q351.20 3.64 351.08 3.72Q350.97 3.80 350.97 4.16L350.97 4.16L350.97 11.22Q350.97 11.57 351.06 11.67Q351.14 11.77 351.44 11.77L351.44 11.77Q354.31 11.74 354.96 11.63L354.96 11.63Q355.17 11.61 355.26 11.39Q355.34 11.17 355.54 10.05L355.54 10.05L356.03 10.08L355.56 12.41L348.80 12.41L348.79 11.87L349.18 11.87Q349.69 11.87 349.75 11.80L349.75 11.80Q349.84 11.72 349.84 11.33L349.84 11.33L349.84 4.09Q349.84 3.80 349.69 3.72L349.69 3.72Q349.54 3.64 349.10 3.64L349.10 3.64ZM364.25 11.84L364.25 11.84Q364.25 11.68 364.53 11.45Q364.81 11.21 364.92 11.21L364.92 11.21Q365.12 11.21 365.36 11.49L365.36 11.49Q365.59 11.76 365.59 11.91L365.59 11.91Q365.59 12.09 365.32 12.32L365.32 12.32Q365.04 12.56 364.88 12.55L364.88 12.55Q364.76 12.55 364.51 12.29Q364.25 12.02 364.25 11.84ZM387.17 12.41L383.45 12.41L383.45 11.87L383.89 11.87Q384.26 11.87 384.32 11.81L384.32 11.81Q384.38 11.74 384.39 11.46L384.39 11.46L384.39 4.14Q384.39 3.81 384.31 3.72Q384.22 3.64 383.86 3.64L383.86 3.64L383.49 3.64L383.50 3.08L386.39 3.08Q387.54 3.08 388.19 3.19L388.19 3.19Q388.79 3.28 389.26 3.68L389.26 3.68Q390.45 4.64 390.45 6.19L390.45 6.19Q390.45 7.23 389.68 7.98L389.68 7.98Q388.90 8.74 387.50 8.73L387.50 8.73Q387.32 8.73 386.91 8.70L386.91 8.70Q386.80 8.69 386.37 8.62L386.37 8.62Q386.04 8.55 385.94 8.54L385.94 8.54Q385.65 8.47 385.64 8.46L385.64 8.46L385.52 8.44L385.52 11.46Q385.52 11.74 385.65 11.81L385.65 11.81Q385.76 11.87 386.48 11.87L386.48 11.87L387.17 11.87L387.17 12.41ZM385.52 4.28L385.52 8.02Q385.87 8.29 386.84 8.29L386.84 8.29Q387.97 8.29 388.55 7.75L388.55 7.75Q389.14 7.21 389.14 6.16L389.14 6.16Q389.14 4.98 388.23 4.31L388.23 4.31Q387.33 3.64 385.94 3.64L385.94 3.64Q385.69 3.64 385.61 3.75L385.61 3.75Q385.53 3.84 385.52 4.28L385.52 4.28ZM398.81 7.83L398.81 7.83Q398.81 6.62 399.21 5.68L399.21 5.68Q399.63 4.72 400.32 4.12L400.32 4.12Q401.01 3.51 401.87 3.19L401.87 3.19Q402.71 2.88 403.66 2.88L403.66 2.88Q404.92 2.88 405.97 3.40L405.97 3.40Q407.05 3.93 407.76 5.07L407.76 5.07Q408.46 6.17 408.47 7.75L408.47 7.75Q408.47 8.70 408.16 9.54Q407.85 10.38 407.25 11.10Q406.64 11.81 405.71 12.22L405.71 12.22Q404.74 12.63 403.55 12.64L403.55 12.64Q402.42 12.64 401.48 12.23Q400.54 11.83 399.98 11.14L399.98 11.14Q399.41 10.45 399.12 9.60L399.12 9.60Q398.81 8.72 398.81 7.83ZM400.07 7.38L400.07 7.38Q400.07 8.52 400.50 9.60L400.50 9.60Q400.90 10.64 401.83 11.33L401.83 11.33Q402.74 12.03 403.93 12.04L403.93 12.04Q405.30 12.04 406.24 11.01L406.24 11.01Q407.19 9.97 407.19 8.10L407.19 8.10Q407.19 5.99 406.03 4.72L406.03 4.72Q404.88 3.46 403.37 3.45L403.37 3.45Q402.85 3.45 402.31 3.65Q401.76 3.85 401.26 4.25L401.26 4.25Q400.71 4.68 400.39 5.48L400.39 5.48Q400.07 6.27 400.07 7.38ZM420.31 12.41L416.58 12.41L416.58 11.87L417.02 11.87Q417.40 11.87 417.45 11.81L417.45 11.81Q417.52 11.74 417.53 11.46L417.53 11.46L417.53 4.14Q417.53 3.81 417.44 3.72Q417.35 3.64 416.99 3.64L416.99 3.64L416.62 3.64L416.64 3.08L419.52 3.08Q420.67 3.08 421.32 3.19L421.32 3.19Q421.92 3.28 422.39 3.68L422.39 3.68Q423.58 4.64 423.58 6.19L423.58 6.19Q423.58 7.23 422.82 7.98L422.82 7.98Q422.04 8.74 420.63 8.73L420.63 8.73Q420.46 8.73 420.04 8.70L420.04 8.70Q419.93 8.69 419.51 8.62L419.51 8.62Q419.17 8.55 419.08 8.54L419.08 8.54Q418.78 8.47 418.77 8.46L418.77 8.46L418.65 8.44L418.65 11.46Q418.65 11.74 418.78 11.81L418.78 11.81Q418.89 11.87 419.61 11.87L419.61 11.87L420.31 11.87L420.31 12.41ZM418.65 4.28L418.65 8.02Q419.00 8.29 419.97 8.29L419.97 8.29Q421.11 8.29 421.68 7.75L421.68 7.75Q422.27 7.21 422.27 6.16L422.27 6.16Q422.27 4.98 421.36 4.31L421.36 4.31Q420.46 3.64 419.08 3.64L419.08 3.64Q418.82 3.64 418.74 3.75L418.74 3.75Q418.66 3.84 418.65 4.28L418.65 4.28ZM431.94 3.64L431.56 3.64L431.56 3.08L434.92 3.08L434.94 3.64L434.40 3.64Q433.97 3.64 433.82 3.73L433.82 3.73Q433.64 3.83 433.64 4.16L433.64 4.16L433.64 9.33Q433.64 9.63 433.68 9.78L433.68 9.78Q433.72 10.01 433.88 10.41L433.88 10.41Q434.05 10.80 434.35 11.09L434.35 11.09Q434.66 11.40 435.22 11.63L435.22 11.63Q435.79 11.85 436.57 11.85L436.57 11.85Q437.42 11.85 437.97 11.67L437.97 11.67Q438.53 11.48 438.84 11.22Q439.15 10.96 439.29 10.49L439.29 10.49Q439.46 9.95 439.47 9.66L439.47 9.66Q439.50 9.18 439.50 8.67L439.50 8.67L439.50 4.14Q439.50 3.81 439.36 3.72L439.36 3.72Q439.21 3.64 438.73 3.64L438.73 3.64L438.24 3.64L438.27 3.08L440.90 3.08L440.90 3.64L440.71 3.64Q440.38 3.64 440.27 3.75Q440.16 3.86 440.16 4.25L440.16 4.25L440.16 9.22Q440.16 12.67 436.57 12.67L436.57 12.67Q434.40 12.67 433.45 11.76L433.45 11.76Q432.52 10.86 432.52 9.41L432.52 9.41L432.52 4.14Q432.52 3.81 432.41 3.72L432.41 3.72Q432.30 3.64 431.94 3.64L431.94 3.64ZM452.36 12.41L448.64 12.41L448.64 11.87L449.07 11.87Q449.45 11.87 449.50 11.81L449.50 11.81Q449.57 11.74 449.58 11.46L449.58 11.46L449.58 4.14Q449.58 3.81 449.49 3.72Q449.41 3.64 449.05 3.64L449.05 3.64L448.68 3.64L448.69 3.08L451.58 3.08Q452.72 3.08 453.37 3.19L453.37 3.19Q453.97 3.28 454.45 3.68L454.45 3.68Q455.64 4.64 455.64 6.19L455.64 6.19Q455.64 7.23 454.87 7.98L454.87 7.98Q454.09 8.74 452.68 8.73L452.68 8.73Q452.51 8.73 452.09 8.70L452.09 8.70Q451.99 8.69 451.56 8.62L451.56 8.62Q451.23 8.55 451.13 8.54L451.13 8.54Q450.84 8.47 450.82 8.46L450.82 8.46L450.71 8.44L450.71 11.46Q450.71 11.74 450.84 11.81L450.84 11.81Q450.95 11.87 451.66 11.87L451.66 11.87L452.36 11.87L452.36 12.41ZM450.71 4.28L450.71 8.02Q451.06 8.29 452.03 8.29L452.03 8.29Q453.16 8.29 453.74 7.75L453.74 7.75Q454.32 7.21 454.32 6.16L454.32 6.16Q454.32 4.98 453.41 4.31L453.41 4.31Q452.52 3.64 451.13 3.64L451.13 3.64Q450.88 3.64 450.80 3.75L450.80 3.75Q450.71 3.84 450.71 4.28L450.71 4.28ZM463.95 3.64L463.56 3.64L463.57 3.08L466.79 3.08Q467.93 3.08 468.53 3.21L468.53 3.21Q469.17 3.37 469.64 3.75L469.64 3.75Q470.64 4.57 470.64 5.71L470.64 5.71Q470.64 6.43 470.17 7.04L470.17 7.04Q469.68 7.66 468.64 7.92L468.64 7.92L471.33 11.49Q471.64 11.87 471.93 11.87L471.93 11.87L472.53 11.87L472.56 12.41L470.53 12.41L467.54 8.10L467.37 8.10Q467.33 8.10 467.27 8.11Q467.22 8.11 467.20 8.11L467.20 8.11Q466.32 8.11 465.92 8.03L465.92 8.03L465.92 11.46Q465.92 11.76 466.07 11.81L466.07 11.81Q466.19 11.87 466.89 11.87L466.89 11.87L467.61 11.87L467.58 12.41L463.85 12.41L463.85 11.87L464.17 11.87Q464.64 11.87 464.71 11.81L464.71 11.81Q464.79 11.74 464.79 11.46L464.79 11.46L464.79 4.14Q464.79 3.82 464.60 3.73L464.60 3.73Q464.37 3.64 463.95 3.64L463.95 3.64ZM465.92 4.28L465.92 7.57Q466.11 7.70 466.82 7.71L466.82 7.71Q468.09 7.71 468.67 7.27L468.67 7.27Q469.26 6.84 469.26 5.92L469.26 5.92Q469.26 4.92 468.49 4.27L468.49 4.27Q467.73 3.64 466.35 3.64L466.35 3.64Q466.09 3.64 466.01 3.75L466.01 3.75Q465.93 3.84 465.92 4.28L465.92 4.28ZM480.33 3.64L480.31 3.08L487.53 3.08Q487.54 4.14 487.59 5.28L487.59 5.28L487.05 5.30Q487.03 4.66 486.98 4.25L486.98 4.25Q486.94 3.89 486.88 3.80L486.88 3.80Q486.83 3.71 486.71 3.69L486.71 3.69Q486.62 3.68 486.03 3.68L486.03 3.68L483.65 3.68Q483.10 3.68 482.96 3.77L482.96 3.77Q482.84 3.86 482.84 4.33L482.84 4.33L482.84 6.28Q482.84 6.69 482.89 6.76L482.89 6.76Q482.96 6.84 483.30 6.84L483.30 6.84L485.41 6.84Q485.78 6.84 485.86 6.73L485.86 6.73Q485.94 6.63 485.95 6.14L485.95 6.14L485.95 5.61L486.46 5.63L486.46 8.97L485.95 8.97L485.95 8.24Q485.95 7.66 485.87 7.57L485.87 7.57Q485.79 7.46 485.44 7.46L485.44 7.46L483.34 7.46Q483.01 7.46 482.92 7.54Q482.84 7.63 482.84 7.89L482.84 7.89L482.84 11.20Q482.84 11.57 482.92 11.67Q483.01 11.77 483.28 11.77L483.28 11.77Q486.20 11.75 486.73 11.69L486.73 11.69Q487.25 11.63 487.33 11.38L487.33 11.38L487.33 11.36L487.34 11.35L487.57 10.17L488.04 10.25L487.70 12.41L480.59 12.41L480.59 11.87L480.96 11.87Q481.52 11.87 481.61 11.80L481.61 11.80Q481.70 11.72 481.70 11.33L481.70 11.33L481.70 4.24Q481.70 3.82 481.55 3.73L481.55 3.73Q481.38 3.64 480.72 3.64L480.72 3.64L480.33 3.64ZM495.93 12.41L495.92 11.87L496.09 11.87Q496.48 11.87 496.61 11.73L496.61 11.73Q496.73 11.57 497.07 10.83L497.07 10.83L497.98 8.82L498.55 7.53Q498.82 6.97 498.86 6.86L498.86 6.86Q498.93 6.70 498.98 6.60Q499.03 6.51 499.04 6.45L499.04 6.45L499.14 6.21L500.57 2.74L500.86 2.74Q501.72 4.98 503.90 10.25L503.90 10.25Q504.36 11.34 504.55 11.64L504.55 11.64Q504.68 11.87 505.12 11.87L505.12 11.87L505.33 11.87L505.32 12.41L502.13 12.41L502.14 11.87L502.56 11.87Q503.17 11.87 503.17 11.70L503.17 11.70Q503.17 11.63 503.04 11.27L503.04 11.27L502.00 8.72L498.75 8.72L497.64 11.18Q497.51 11.50 497.51 11.63L497.51 11.63Q497.51 11.79 497.60 11.83Q497.70 11.87 498.08 11.87L498.08 11.87L498.65 11.87L498.65 12.41L495.93 12.41ZM500.43 4.79L499.02 8.10L501.76 8.10L500.43 4.79ZM513.45 8.02L513.45 8.02Q513.45 6.86 513.92 5.83L513.92 5.83Q514.38 4.85 515.14 4.27L515.14 4.27Q515.88 3.69 516.78 3.37Q517.67 3.05 518.51 3.05L518.51 3.05Q519.38 3.05 520.05 3.16L520.05 3.16Q520.68 3.26 520.97 3.37L520.97 3.37Q521.28 3.48 521.32 3.48L521.32 3.48Q521.49 3.48 521.51 3.41L521.51 3.41Q521.53 3.33 521.53 3.09L521.53 3.09L521.53 2.97L522.07 2.97Q522.11 4.30 522.24 5.64L522.24 5.64L521.73 5.65Q521.71 5.40 521.69 5.26L521.69 5.26Q521.69 5.20 521.68 5.13Q521.68 5.07 521.67 5.02Q521.66 4.98 521.66 4.95L521.66 4.95Q521.64 4.84 521.64 4.74L521.64 4.74Q521.64 4.68 521.60 4.59L521.60 4.59Q521.60 4.57 521.56 4.55Q521.53 4.52 521.53 4.50L521.53 4.50Q521.51 4.44 521.44 4.41L521.44 4.41Q521.40 4.38 521.37 4.37Q521.34 4.36 521.32 4.35L521.32 4.35Q521.30 4.35 521.28 4.33Q521.25 4.31 521.21 4.29Q521.17 4.27 521.13 4.25L521.13 4.25Q520.91 4.16 520.88 4.14L520.88 4.14Q520.53 3.96 519.89 3.83L519.89 3.83Q519.22 3.71 518.55 3.71L518.55 3.71Q516.83 3.71 515.74 4.84L515.74 4.84Q514.63 5.99 514.64 7.62L514.64 7.62Q514.64 9.35 515.85 10.69L515.85 10.69Q517.06 12.02 518.88 12.02L518.88 12.02Q519.88 12.02 520.82 11.49L520.82 11.49Q521.77 10.94 521.80 10.58L521.80 10.58L521.84 9.41L522.33 9.41L522.25 11.45Q522.18 11.49 522.05 11.57L522.05 11.57Q522.00 11.60 521.53 11.85L521.53 11.85Q521.16 12.05 520.71 12.23L520.71 12.23Q520.35 12.39 519.70 12.51L519.70 12.51Q519.09 12.63 518.53 12.64L518.53 12.64Q516.15 12.64 514.79 11.39L514.79 11.39Q513.45 10.14 513.45 8.02ZM530.74 3.64L530.37 3.64L530.37 3.08L533.85 3.08L533.85 3.64L533.49 3.64Q532.98 3.64 532.83 3.75L532.83 3.75Q532.70 3.84 532.69 4.25L532.69 4.25L532.69 6.91L537.24 6.91L537.24 4.14Q537.24 3.77 537.15 3.71L537.15 3.71Q537.04 3.64 536.51 3.64L536.51 3.64L535.92 3.64L535.91 3.08L539.46 3.08L539.46 3.64L539.08 3.64Q538.60 3.64 538.49 3.74Q538.38 3.83 538.38 4.22L538.38 4.22L538.38 11.29Q538.38 11.67 538.51 11.77L538.51 11.77Q538.67 11.87 539.22 11.87L539.22 11.87L539.69 11.87L539.68 12.41L536.19 12.41L536.18 11.87L536.59 11.87Q537.05 11.87 537.15 11.77Q537.24 11.67 537.24 11.25L537.24 11.25L537.24 7.58L532.69 7.58L532.69 11.25Q532.69 11.67 532.84 11.77Q533.00 11.87 533.70 11.87L533.70 11.87L534.11 11.87L534.08 12.41L530.50 12.41L530.48 11.87L530.84 11.87Q531.39 11.87 531.46 11.80L531.46 11.80Q531.56 11.70 531.56 11.25L531.56 11.25L531.56 4.09Q531.56 3.76 531.42 3.71L531.42 3.71Q531.25 3.64 530.74 3.64L530.74 3.64ZM560.16 12.41L557.14 12.41L557.14 11.87L557.28 11.87Q557.87 11.87 557.98 11.77L557.98 11.77Q558.11 11.68 558.12 11.21L558.12 11.21L558.25 4.38Q558.25 4.35 558.26 4.28Q558.26 4.21 558.26 4.17L558.26 4.17L558.26 4.01Q558.26 3.76 558.19 3.71L558.19 3.71Q558.09 3.64 557.87 3.64L557.87 3.64L557.16 3.64L557.14 3.08L559.25 3.08L562.45 10.55L565.58 3.08L567.82 3.08L567.82 3.64L567.35 3.64Q566.90 3.64 566.77 3.71L566.77 3.71Q566.62 3.79 566.62 4.08L566.62 4.08L566.62 11.22Q566.62 11.68 566.73 11.77Q566.84 11.87 567.47 11.87L567.47 11.87L567.75 11.87L567.77 12.41L564.37 12.41L564.35 11.87L564.63 11.87Q565.24 11.87 565.36 11.77L565.36 11.77Q565.48 11.66 565.48 11.25L565.48 11.25L565.48 4.83L563.33 9.91L562.47 12.02Q562.34 12.37 562.29 12.44Q562.25 12.51 562.18 12.51L562.18 12.51Q562.08 12.51 561.63 11.52L561.63 11.52L558.82 5.01L558.76 11.39Q558.76 11.74 558.96 11.80L558.96 11.80Q559.20 11.87 560.16 11.87L560.16 11.87L560.16 12.41ZM575.50 12.41L575.49 11.87L575.66 11.87Q576.05 11.87 576.18 11.73L576.18 11.73Q576.30 11.57 576.64 10.83L576.64 10.83L577.55 8.82L578.12 7.53Q578.39 6.97 578.43 6.86L578.43 6.86Q578.50 6.70 578.55 6.60Q578.60 6.51 578.61 6.45L578.61 6.45L578.71 6.21L580.14 2.74L580.43 2.74Q581.29 4.98 583.47 10.25L583.47 10.25Q583.93 11.34 584.12 11.64L584.12 11.64Q584.25 11.87 584.69 11.87L584.69 11.87L584.90 11.87L584.89 12.41L581.70 12.41L581.71 11.87L582.13 11.87Q582.74 11.87 582.74 11.70L582.74 11.70Q582.74 11.63 582.61 11.27L582.61 11.27L581.57 8.72L578.32 8.72L577.21 11.18Q577.08 11.50 577.08 11.63L577.08 11.63Q577.08 11.79 577.17 11.83Q577.27 11.87 577.65 11.87L577.65 11.87L578.22 11.87L578.22 12.41L575.50 12.41ZM580.00 4.79L578.59 8.10L581.33 8.10L580.00 4.79ZM593.22 3.64L592.63 3.64L592.63 3.08L596.13 3.08L596.13 3.64L595.69 3.64Q595.29 3.64 595.18 3.73L595.18 3.73Q595.08 3.84 595.08 4.28L595.08 4.28L595.08 7.50L599.16 4.18Q599.51 3.89 599.51 3.77L599.51 3.77Q599.51 3.64 598.87 3.64L598.87 3.64L598.32 3.64L598.29 3.08L601.65 3.08L601.65 3.64L601.29 3.64Q600.86 3.64 600.65 3.76L600.65 3.76Q600.48 3.86 599.59 4.55L599.59 4.55L596.43 7.08L600.66 11.49Q601.02 11.87 601.26 11.87L601.26 11.87L602.08 11.87L602.05 12.41L599.85 12.41L595.59 7.74L595.08 8.16L595.08 11.22Q595.08 11.70 595.24 11.79Q595.41 11.87 596.18 11.87L596.18 11.87L596.48 11.87L596.48 12.41L592.90 12.41L592.89 11.87L593.26 11.87Q593.77 11.87 593.85 11.79Q593.94 11.70 593.94 11.25L593.94 11.25L593.94 4.14Q593.94 3.77 593.84 3.71L593.84 3.71Q593.73 3.64 593.22 3.64L593.22 3.64ZM609.82 3.64L609.81 3.08L617.02 3.08Q617.03 4.14 617.09 5.28L617.09 5.28L616.54 5.30Q616.53 4.66 616.47 4.25L616.47 4.25Q616.43 3.89 616.38 3.80L616.38 3.80Q616.32 3.71 616.21 3.69L616.21 3.69Q616.11 3.68 615.52 3.68L615.52 3.68L613.14 3.68Q612.60 3.68 612.45 3.77L612.45 3.77Q612.33 3.86 612.33 4.33L612.33 4.33L612.33 6.28Q612.33 6.69 612.38 6.76L612.38 6.76Q612.45 6.84 612.79 6.84L612.79 6.84L614.91 6.84Q615.27 6.84 615.35 6.73L615.35 6.73Q615.43 6.63 615.44 6.14L615.44 6.14L615.44 5.61L615.95 5.63L615.95 8.97L615.44 8.97L615.44 8.24Q615.44 7.66 615.36 7.57L615.36 7.57Q615.28 7.46 614.93 7.46L614.93 7.46L612.83 7.46Q612.50 7.46 612.41 7.54Q612.33 7.63 612.33 7.89L612.33 7.89L612.33 11.20Q612.33 11.57 612.41 11.67Q612.50 11.77 612.77 11.77L612.77 11.77Q615.69 11.75 616.22 11.69L616.22 11.69Q616.74 11.63 616.82 11.38L616.82 11.38L616.83 11.36L616.83 11.35L617.06 10.17L617.54 10.25L617.19 12.41L610.09 12.41L610.09 11.87L610.46 11.87Q611.02 11.87 611.10 11.80L611.10 11.80Q611.19 11.72 611.19 11.33L611.19 11.33L611.19 4.24Q611.19 3.82 611.04 3.73L611.04 3.73Q610.87 3.64 610.22 3.64L610.22 3.64L609.82 3.64ZM625.39 10.04L625.39 10.04L625.88 9.98L626.06 10.85Q626.17 11.33 626.24 11.41Q626.31 11.49 626.72 11.64L626.72 11.64Q627.56 11.95 628.46 11.95L628.46 11.95Q629.24 11.95 629.78 11.49L629.78 11.49Q630.31 11.04 630.31 10.26L630.31 10.26Q630.31 9.65 629.86 9.21L629.86 9.21Q629.38 8.76 628.52 8.30L628.52 8.30L627.95 7.98Q627.20 7.55 626.97 7.36L626.97 7.36Q626.61 7.08 626.30 6.59Q625.99 6.10 625.99 5.46L625.99 5.46Q625.99 4.39 626.83 3.68Q627.67 2.97 628.78 2.97L628.78 2.97Q629.06 2.97 629.41 3.04L629.41 3.04Q629.60 3.08 629.94 3.17L629.94 3.17L630.18 3.25Q630.27 3.25 630.31 3.16L630.31 3.16Q630.37 3.05 630.37 2.98L630.37 2.98L630.38 2.88L630.86 2.85L631.07 5.41L630.57 5.43L630.44 4.18Q629.70 3.62 628.54 3.62L628.54 3.62Q627.89 3.62 627.39 4.05L627.39 4.05Q626.91 4.47 626.91 5.12L626.91 5.12Q626.91 5.72 627.36 6.17L627.36 6.17Q627.79 6.60 628.66 7.08L628.66 7.08L629.43 7.50Q630.38 8.03 630.92 8.59Q631.45 9.15 631.45 9.92L631.45 9.92Q631.45 10.99 630.59 11.76L630.59 11.76Q629.73 12.54 628.27 12.54L628.27 12.54Q627.71 12.54 627.21 12.41Q626.71 12.29 626.65 12.29L626.65 12.29Q626.40 12.29 626.40 12.58L626.40 12.58L626.41 12.76L625.93 12.80Q625.87 12.41 625.39 10.04ZM649.79 3.64L649.20 3.64L649.22 3.08L652.73 3.08L652.73 3.64L652.50 3.64Q651.95 3.64 651.78 3.73L651.78 3.73Q651.64 3.81 651.64 4.28L651.64 4.28L651.64 11.22Q651.64 11.68 651.75 11.77Q651.86 11.87 652.39 11.87L652.39 11.87L652.94 11.87L652.96 12.41L649.37 12.41L649.36 11.87L649.72 11.87Q650.28 11.87 650.40 11.77Q650.51 11.67 650.51 11.25L650.51 11.25L650.51 4.14Q650.51 3.77 650.41 3.71L650.41 3.71Q650.30 3.64 649.79 3.64L649.79 3.64ZM660.97 5.35L660.47 5.33Q660.60 4.17 660.68 3.08L660.68 3.08L668.76 3.08Q668.68 4.13 668.65 4.53L668.65 4.53Q668.61 5.26 668.59 5.32L668.59 5.32L668.09 5.30Q668.17 4.34 668.17 4.16L668.17 4.16Q668.17 3.88 668.03 3.79L668.03 3.79Q667.86 3.69 667.45 3.69L667.45 3.69L665.85 3.69Q665.34 3.69 665.22 3.79L665.22 3.79Q665.12 3.87 665.12 4.36L665.12 4.36L665.12 11.22Q665.12 11.66 665.26 11.76L665.26 11.76Q665.42 11.87 665.93 11.87L665.93 11.87L666.49 11.87L666.50 12.41L662.81 12.40L662.81 11.87L663.03 11.87Q663.70 11.87 663.84 11.79Q663.99 11.70 663.99 11.28L663.99 11.28L663.99 4.48Q663.99 3.92 663.89 3.80Q663.79 3.69 663.37 3.69L663.37 3.69L661.90 3.69Q661.71 3.69 661.64 3.71Q661.58 3.72 661.47 3.72L661.47 3.72Q661.44 3.72 661.32 3.79L661.32 3.79Q661.24 3.84 661.21 3.86Q661.19 3.88 661.14 3.99L661.14 3.99Q661.12 4.05 661.09 4.14L661.09 4.14Q661.06 4.21 661.04 4.36L661.04 4.36Q661.01 4.59 661.01 4.61L661.01 4.61Q661.01 4.80 661.00 4.95L661.00 4.95Q661.00 5.02 660.99 5.15Q660.99 5.29 660.97 5.35L660.97 5.35ZM686.44 3.64L686.07 3.64L686.07 3.08L689.55 3.08L689.55 3.64L689.19 3.64Q688.69 3.64 688.54 3.75L688.54 3.75Q688.40 3.84 688.39 4.25L688.39 4.25L688.39 6.91L692.95 6.91L692.95 4.14Q692.95 3.77 692.85 3.71L692.85 3.71Q692.74 3.64 692.21 3.64L692.21 3.64L691.63 3.64L691.61 3.08L695.17 3.08L695.17 3.64L694.78 3.64Q694.30 3.64 694.19 3.74Q694.08 3.83 694.08 4.22L694.08 4.22L694.08 11.29Q694.08 11.67 694.22 11.77L694.22 11.77Q694.37 11.87 694.92 11.87L694.92 11.87L695.39 11.87L695.38 12.41L691.89 12.41L691.88 11.87L692.29 11.87Q692.75 11.87 692.85 11.77Q692.95 11.67 692.95 11.25L692.95 11.25L692.95 7.58L688.39 7.58L688.39 11.25Q688.39 11.67 688.55 11.77Q688.70 11.87 689.40 11.87L689.40 11.87L689.81 11.87L689.78 12.41L686.20 12.41L686.18 11.87L686.55 11.87Q687.09 11.87 687.16 11.80L687.16 11.80Q687.26 11.70 687.26 11.25L687.26 11.25L687.26 4.09Q687.26 3.76 687.12 3.71L687.12 3.71Q686.95 3.64 686.44 3.64L686.44 3.64ZM703.14 12.41L703.13 11.87L703.30 11.87Q703.69 11.87 703.82 11.73L703.82 11.73Q703.94 11.57 704.28 10.83L704.28 10.83L705.19 8.82L705.76 7.53Q706.03 6.97 706.07 6.86L706.07 6.86Q706.14 6.70 706.19 6.60Q706.24 6.51 706.25 6.45L706.25 6.45L706.35 6.21L707.78 2.74L708.07 2.74Q708.93 4.98 711.12 10.25L711.12 10.25Q711.57 11.34 711.76 11.64L711.76 11.64Q711.89 11.87 712.33 11.87L712.33 11.87L712.54 11.87L712.53 12.41L709.34 12.41L709.35 11.87L709.77 11.87Q710.38 11.87 710.38 11.70L710.38 11.70Q710.38 11.63 710.25 11.27L710.25 11.27L709.21 8.72L705.96 8.72L704.85 11.18Q704.72 11.50 704.72 11.63L704.72 11.63Q704.72 11.79 704.81 11.83Q704.91 11.87 705.29 11.87L705.29 11.87L705.87 11.87L705.87 12.41L703.14 12.41ZM707.64 4.79L706.23 8.10L708.97 8.10L707.64 4.79ZM724.00 12.41L720.28 12.41L720.28 11.87L720.71 11.87Q721.09 11.87 721.14 11.81L721.14 11.81Q721.21 11.74 721.22 11.46L721.22 11.46L721.22 4.14Q721.22 3.81 721.13 3.72Q721.05 3.64 720.69 3.64L720.69 3.64L720.32 3.64L720.33 3.08L723.21 3.08Q724.36 3.08 725.01 3.19L725.01 3.19Q725.61 3.28 726.09 3.68L726.09 3.68Q727.28 4.64 727.28 6.19L727.28 6.19Q727.28 7.23 726.51 7.98L726.51 7.98Q725.73 8.74 724.32 8.73L724.32 8.73Q724.15 8.73 723.73 8.70L723.73 8.70Q723.63 8.69 723.20 8.62L723.20 8.62Q722.87 8.55 722.77 8.54L722.77 8.54Q722.48 8.47 722.46 8.46L722.46 8.46L722.35 8.44L722.35 11.46Q722.35 11.74 722.48 11.81L722.48 11.81Q722.59 11.87 723.30 11.87L723.30 11.87L724.00 11.87L724.00 12.41ZM722.35 4.28L722.35 8.02Q722.70 8.29 723.67 8.29L723.67 8.29Q724.80 8.29 725.38 7.75L725.38 7.75Q725.96 7.21 725.96 6.16L725.96 6.16Q725.96 4.98 725.05 4.31L725.05 4.31Q724.16 3.64 722.77 3.64L722.77 3.64Q722.52 3.64 722.44 3.75L722.44 3.75Q722.35 3.84 722.35 4.28L722.35 4.28ZM738.98 12.41L735.25 12.41L735.25 11.87L735.69 11.87Q736.07 11.87 736.12 11.81L736.12 11.81Q736.19 11.74 736.20 11.46L736.20 11.46L736.20 4.14Q736.20 3.81 736.11 3.72Q736.03 3.64 735.66 3.64L735.66 3.64L735.29 3.64L735.31 3.08L738.19 3.08Q739.34 3.08 739.99 3.19L739.99 3.19Q740.59 3.28 741.06 3.68L741.06 3.68Q742.25 4.64 742.25 6.19L742.25 6.19Q742.25 7.23 741.49 7.98L741.49 7.98Q740.71 8.74 739.30 8.73L739.30 8.73Q739.13 8.73 738.71 8.70L738.71 8.70Q738.60 8.69 738.18 8.62L738.18 8.62Q737.84 8.55 737.75 8.54L737.75 8.54Q737.45 8.47 737.44 8.46L737.44 8.46L737.32 8.44L737.32 11.46Q737.32 11.74 737.45 11.81L737.45 11.81Q737.56 11.87 738.28 11.87L738.28 11.87L738.98 11.87L738.98 12.41ZM737.32 4.28L737.32 8.02Q737.67 8.29 738.64 8.29L738.64 8.29Q739.78 8.29 740.35 7.75L740.35 7.75Q740.94 7.21 740.94 6.16L740.94 6.16Q740.94 4.98 740.03 4.31L740.03 4.31Q739.14 3.64 737.75 3.64L737.75 3.64Q737.50 3.64 737.41 3.75L737.41 3.75Q737.33 3.84 737.32 4.28L737.32 4.28ZM750.24 3.64L750.23 3.08L757.44 3.08Q757.46 4.14 757.51 5.28L757.51 5.28L756.96 5.30Q756.95 4.66 756.90 4.25L756.90 4.25Q756.85 3.89 756.80 3.80L756.80 3.80Q756.75 3.71 756.63 3.69L756.63 3.69Q756.53 3.68 755.95 3.68L755.95 3.68L753.57 3.68Q753.02 3.68 752.88 3.77L752.88 3.77Q752.75 3.86 752.75 4.33L752.75 4.33L752.75 6.28Q752.75 6.69 752.81 6.76L752.81 6.76Q752.88 6.84 753.22 6.84L753.22 6.84L755.33 6.84Q755.69 6.84 755.77 6.73L755.77 6.73Q755.86 6.63 755.86 6.14L755.86 6.14L755.86 5.61L756.38 5.63L756.38 8.97L755.86 8.97L755.86 8.24Q755.86 7.66 755.79 7.57L755.79 7.57Q755.71 7.46 755.36 7.46L755.36 7.46L753.26 7.46Q752.92 7.46 752.84 7.54Q752.75 7.63 752.75 7.89L752.75 7.89L752.75 11.20Q752.75 11.57 752.84 11.67Q752.92 11.77 753.20 11.77L753.20 11.77Q756.12 11.75 756.64 11.69L756.64 11.69Q757.16 11.63 757.24 11.38L757.24 11.38L757.25 11.36L757.26 11.35L757.48 10.17L757.96 10.25L757.61 12.41L750.51 12.41L750.51 11.87L750.88 11.87Q751.44 11.87 751.52 11.80L751.52 11.80Q751.62 11.72 751.62 11.33L751.62 11.33L751.62 4.24Q751.62 3.82 751.47 3.73L751.47 3.73Q751.30 3.64 750.64 3.64L750.64 3.64L750.24 3.64ZM765.85 3.64L765.84 3.08L768.01 3.08L773.75 10.48L773.75 4.14Q773.75 3.81 773.59 3.72Q773.44 3.64 772.98 3.64L772.98 3.64L772.49 3.64L772.52 3.08L775.50 3.08L775.50 3.64L775.17 3.64Q774.71 3.64 774.56 3.75Q774.41 3.86 774.41 4.25L774.41 4.25L774.41 12.32L774.41 12.47Q774.41 12.52 774.40 12.57Q774.38 12.61 774.35 12.64L774.35 12.64Q774.33 12.65 774.28 12.65L774.28 12.65L774.09 12.65L774.03 12.65L774.00 12.65L773.97 12.64Q773.94 12.64 773.93 12.63Q773.92 12.61 773.92 12.60Q773.92 12.58 773.90 12.57L773.90 12.57Q773.88 12.54 773.85 12.50L773.85 12.50Q773.83 12.48 773.81 12.45Q773.79 12.41 773.78 12.40L773.78 12.40L767.68 4.56L767.74 11.22Q767.74 11.67 767.91 11.77L767.91 11.77Q768.07 11.87 768.78 11.87L768.78 11.87L769.02 11.87L769.02 12.41L766.08 12.41L766.08 11.87L766.50 11.87Q766.88 11.87 766.99 11.76L766.99 11.76Q767.08 11.66 767.09 11.25L767.09 11.25L767.09 3.80L766.94 3.64L765.85 3.64Z"></path></g></svg>