<svg data-v-423bf9ae="" xmlns="http://www.w3.org/2000/svg" viewBox="0 0 368.6170185937507 60" class="font"><!----><!----><!----><g data-v-423bf9ae="" id="3a43a3f0-3cf2-44ed-9711-2f93c76c6a7d" fill="black" transform="matrix(4.559270569581267,0,0,4.559270569581267,-4.924009854467698,-18.19148937769127)"><path d="M3.21 14.35L3.21 10.82L5.70 10.82C7.52 10.82 8.67 9.55 8.67 7.70C8.67 5.85 7.52 4.58 5.70 4.58L1.08 4.58L1.08 14.35ZM3.21 6.43L5.45 6.43C6.08 6.43 6.47 6.76 6.47 7.39L6.47 8.01C6.47 8.64 6.08 8.97 5.45 8.97L3.21 8.97ZM12.85 14.52C15.01 14.52 16.30 13.03 16.30 10.67C16.30 8.30 15.01 6.83 12.85 6.83C10.70 6.83 9.41 8.30 9.41 10.67C9.41 13.03 10.70 14.52 12.85 14.52ZM12.85 12.88C12.04 12.88 11.56 12.35 11.56 11.42L11.56 9.93C11.56 9.00 12.04 8.47 12.85 8.47C13.66 8.47 14.14 9.00 14.14 9.93L14.14 11.42C14.14 12.35 13.66 12.88 12.85 12.88ZM17.77 17.15L19.84 17.15L19.84 13.12L19.91 13.12C20.12 13.92 20.93 14.52 21.88 14.52C23.74 14.52 24.71 13.16 24.71 10.67C24.71 8.18 23.74 6.83 21.88 6.83C20.93 6.83 20.12 7.42 19.91 8.23L19.84 8.23L19.84 7.00L17.77 7.00ZM21.20 12.84C20.41 12.84 19.84 12.43 19.84 11.76L19.84 9.59C19.84 8.92 20.41 8.51 21.20 8.51C21.98 8.51 22.55 9.11 22.55 10.04L22.55 11.31C22.55 12.24 21.98 12.84 21.20 12.84ZM30.62 14.35L32.69 14.35L32.69 7.00L30.62 7.00L30.62 11.77C30.62 12.47 29.96 12.84 29.32 12.84C28.56 12.84 28.27 12.33 28.27 11.44L28.27 7.00L26.19 7.00L26.19 11.62C26.19 13.47 26.99 14.52 28.49 14.52C29.69 14.52 30.30 13.86 30.55 13.12L30.62 13.12ZM34.62 17.15L36.69 17.15L36.69 13.12L36.76 13.12C36.97 13.92 37.79 14.52 38.74 14.52C40.60 14.52 41.57 13.16 41.57 10.67C41.57 8.18 40.60 6.83 38.74 6.83C37.79 6.83 36.97 7.42 36.76 8.23L36.69 8.23L36.69 7.00L34.62 7.00ZM38.05 12.84C37.27 12.84 36.69 12.43 36.69 11.76L36.69 9.59C36.69 8.92 37.27 8.51 38.05 8.51C38.84 8.51 39.41 9.11 39.41 10.04L39.41 11.31C39.41 12.24 38.84 12.84 38.05 12.84ZM45.37 10.77L46.90 10.77L48.61 14.35L50.97 14.35L49.06 10.51C50.25 10.07 50.83 9.02 50.83 7.70C50.83 5.84 49.69 4.58 47.88 4.58L43.25 4.58L43.25 14.35L45.37 14.35ZM45.37 8.97L45.37 6.43L47.61 6.43C48.24 6.43 48.64 6.76 48.64 7.39L48.64 8.01C48.64 8.64 48.24 8.97 47.61 8.97ZM55.43 14.52C56.77 14.52 57.85 14.06 58.51 13.30L57.47 12.01C57.01 12.49 56.53 12.89 55.66 12.89C54.56 12.89 54.04 12.28 54.04 11.31L54.04 11.20L58.76 11.20L58.76 10.58C58.76 8.60 57.78 6.83 55.34 6.83C53.13 6.83 51.90 8.34 51.90 10.67C51.90 13.02 53.17 14.52 55.43 14.52ZM55.38 8.36C56.21 8.36 56.62 8.96 56.62 9.86L56.62 9.98L54.04 9.98L54.04 9.87C54.04 8.96 54.56 8.36 55.38 8.36ZM66.81 14.35L66.81 12.74L66.12 12.74L66.12 9.52C66.12 7.78 65.06 6.83 62.99 6.83C61.45 6.83 60.61 7.36 60.02 8.23L61.25 9.32C61.57 8.88 62.01 8.46 62.83 8.46C63.70 8.46 64.05 8.90 64.05 9.62L64.05 10.08L62.89 10.08C60.94 10.08 59.74 10.82 59.74 12.38C59.74 13.65 60.55 14.52 62.02 14.52C63.14 14.52 63.95 14.01 64.18 13.06L64.26 13.06C64.39 13.85 64.92 14.35 65.66 14.35ZM62.79 13.08C62.17 13.08 61.82 12.82 61.82 12.29L61.82 12.08C61.82 11.55 62.24 11.26 63.04 11.26L64.05 11.26L64.05 12.12C64.05 12.80 63.48 13.08 62.79 13.08ZM71.16 14.52C72.60 14.52 73.65 13.89 74.14 12.49L72.53 11.79C72.32 12.38 71.99 12.89 71.16 12.89C70.32 12.89 69.89 12.29 69.89 11.37L69.89 10.00C69.89 9.07 70.32 8.47 71.16 8.47C71.89 8.47 72.30 8.92 72.42 9.48L74.10 8.75C73.67 7.55 72.65 6.83 71.16 6.83C68.95 6.83 67.73 8.32 67.73 10.67C67.73 13.02 68.95 14.52 71.16 14.52ZM75.43 14.35L77.50 14.35L77.50 9.59C77.50 8.86 78.16 8.51 78.83 8.51C79.59 8.51 79.86 8.97 79.86 9.91L79.86 14.35L81.93 14.35L81.93 9.74C81.93 7.90 81.13 6.83 79.63 6.83C78.47 6.83 77.85 7.48 77.59 8.25L77.50 8.25L77.50 3.99L75.43 3.99Z"></path></g><!----><!----></svg>